<svg width="720" height="315" xmlns="http://www.w3.org/2000/svg">

 <g>
  <title>background</title>
  <rect fill="none" id="canvas_background" height="317" width="722" y="-1" x="-1"/>
 </g>
 <g>
  <title>Layer 1</title>
  <g id="svg_1">
   <path fill="#eae8e9" id="svg_2" d="m317.65221,189.14675c-5.871,-2.259 -10.511,-6.668 -13.065,-12.414c-2.554,-5.748 -2.717,-12.145 -0.46,-18.016c0.863,-2.243 0.902,-4.707 0.136,-6.965c-5.756,2.543 -9.787,8.297 -9.787,14.983c0,9.597 -7.807,17.404 -17.404,17.404l-55.331,0c-0.113,0.642 -0.286,1.283 -0.53,1.914c-1.556,4.074 -5.436,6.573 -9.552,6.573c-1.218,0 -2.467,-0.225 -3.675,-0.686c-3.478,-1.338 -5.8,-4.376 -6.4,-7.8l-127.221,0c-9.597,0 -17.404,-7.807 -17.404,-17.404c0,-9.032 -7.348,-16.381 -16.381,-16.381c-2.818,0 -5.473,-0.688 -7.831,-1.882l-4.845,12.596c-2.031,5.277 0.603,11.201 5.88,13.23c12.117,4.661 18.185,18.312 13.524,30.431c-2.03,5.278 0.604,11.201 5.881,13.23l189.197,72.768c1.209,0.465 2.45,0.686 3.673,0.686c4.113,0 7.992,-2.497 9.557,-6.566c3.475,-9.034 12.31,-15.104 21.985,-15.104c2.881,0 5.723,0.532 8.446,1.579c2.534,0.975 5.352,0.903 7.833,-0.2s4.423,-3.145 5.397,-5.68l24.256,-63.066c2.031,-5.276 -0.602,-11.2 -5.879,-13.23zm-116.282,48.505c-1.567,4.074 -5.447,6.573 -9.562,6.573c-1.219,0 -2.457,-0.226 -3.675,-0.686c-5.273,-2.028 -7.903,-7.955 -5.877,-13.228c2.028,-5.282 7.955,-7.913 13.227,-5.887c5.283,2.037 7.914,7.955 5.887,13.228zm9.92,-25.8c-1.567,4.074 -5.437,6.573 -9.552,6.573c-1.229,0 -2.467,-0.225 -3.675,-0.686c-5.283,-2.028 -7.914,-7.955 -5.877,-13.227c2.027,-5.283 7.944,-7.914 13.227,-5.887c5.274,2.027 7.904,7.955 5.877,13.227zm52.815,3.866c-1.565,4.068 -5.445,6.566 -9.558,6.566c-1.223,0 -2.464,-0.22 -3.673,-0.685l-15.767,-6.064c-5.277,-2.031 -7.91,-7.953 -5.881,-13.231c2.031,-5.278 7.957,-7.909 13.231,-5.881l15.767,6.064c5.277,2.03 7.911,7.953 5.881,13.231z"/>
   <path fill="#eae8e9" id="svg_3" d="m40.57821,136.02175c16.935,0 30.713,13.778 30.713,30.713c0,1.694 1.378,3.071 3.071,3.071l202.709,0c1.694,0 3.071,-1.378 3.071,-3.071c0,-16.935 13.778,-30.713 30.713,-30.713c1.694,0 3.071,-1.378 3.071,-3.071l0,-67.57c0,-1.694 -1.378,-3.071 -3.071,-3.071c-16.935,0 -30.713,-13.778 -30.713,-30.713c0,-1.694 -1.378,-3.071 -3.071,-3.071l-202.708,0c-1.694,0 -3.071,1.378 -3.071,3.071c0,16.935 -13.778,30.713 -30.713,30.713c-1.694,0 -3.071,1.378 -3.071,3.071l0,67.57c-0.002,1.693 1.376,3.071 3.07,3.071zm202.709,-47.094l16.892,0c5.654,0 10.238,4.584 10.238,10.238c0,5.654 -4.584,10.238 -10.238,10.238l-16.892,0c-5.654,0 -10.238,-4.584 -10.238,-10.238c0,-5.654 4.584,-10.238 10.238,-10.238zm-33.788,-54.487c5.661,0 10.238,4.586 10.238,10.238c0,5.651 -4.577,10.238 -10.238,10.238c-5.652,0 -10.238,-4.587 -10.238,-10.238c0,-5.652 4.586,-10.238 10.238,-10.238zm0,27.642c5.661,0 10.238,4.586 10.238,10.238c0,5.651 -4.577,10.238 -10.238,10.238c-5.652,0 -10.238,-4.587 -10.238,-10.238c0,-5.652 4.586,-10.238 10.238,-10.238zm0,27.642c5.661,0 10.238,4.586 10.238,10.238c0,5.651 -4.577,10.238 -10.238,10.238c-5.652,0 -10.238,-4.587 -10.238,-10.238c0,-5.652 4.586,-10.238 10.238,-10.238zm0,27.643c5.661,0 10.238,4.586 10.238,10.238c0,5.651 -4.577,10.238 -10.238,10.238c-5.652,0 -10.238,-4.587 -10.238,-10.238c0,-5.652 4.586,-10.238 10.238,-10.238zm0,27.642c5.661,0 10.238,4.586 10.238,10.238c0,5.651 -4.577,10.238 -10.238,10.238c-5.652,0 -10.238,-4.587 -10.238,-10.238c0,-5.652 4.586,-10.238 10.238,-10.238z"/>
  </g>
  <g id="svg_4"/>
  <g id="svg_5"/>
  <g id="svg_6"/>
  <g id="svg_7"/>
  <g id="svg_8"/>
  <g id="svg_9"/>
  <g id="svg_10"/>
  <g id="svg_11"/>
  <g id="svg_12"/>
  <g id="svg_13"/>
  <g id="svg_14"/>
  <g id="svg_15"/>
  <g id="svg_16"/>
  <g id="svg_17"/>
  <g id="svg_18"/>
  <text xml:space="preserve" text-anchor="start" font-family="Helvetica, Arial, sans-serif" font-size="100" id="svg_19" y="127.96875" x="340.71721" stroke-opacity="null" stroke-dasharray="5,5" stroke-width="0" stroke="null" fill="#eae8e9">MOVIE</text>
  <text xml:space="preserve" text-anchor="start" font-family="Helvetica, Arial, sans-serif" font-size="100" id="svg_20" y="259.6211" x="340.71721" stroke-opacity="null" stroke-dasharray="5,5" stroke-width="0" stroke="null" fill="#eae8e9">PARK</text>
 </g>
</svg>